<?xml version="1.0" standalone="no"?>
<!DOCTYPE svg PUBLIC "-//W3C//DTD SVG 20010904//EN" "http://www.w3.org/TR/2001/REC-SVG-20010904/DTD/svg10.dtd">
<!-- Created using Krita: https://krita.org -->
<svg xmlns="http://www.w3.org/2000/svg" 
    xmlns:xlink="http://www.w3.org/1999/xlink"
    xmlns:krita="http://krita.org/namespaces/svg/krita"
    xmlns:sodipodi="http://sodipodi.sourceforge.net/DTD/sodipodi-0.dtd"
    width="777.6pt"
    height="777.6pt"
    viewBox="0 0 777.6 777.6">
<defs/>
<path id="shape0" transform="translate(105.611733615284, 22.1285263540522)" fill="none" stroke="#000000" stroke-width="15.804" stroke-linecap="square" stroke-linejoin="bevel" d="M559.848 199.091C609.007 -6.04352 514.519 -27.8267 284.448 30.6115C69.2323 -32.6617 -29.6115 -5.29372 31.0083 183.251C-34.1771 313.028 -17.8892 399.878 290.928 344.531C475.084 415.539 584.235 377.136 559.848 199.091Z"/><ellipse id="shape1" transform="translate(309.239989946323, 422.639977927247)" rx="79.5600100536773" ry="79.5600100536773" cx="79.5600100536773" cy="79.5600100536773" fill="#000000" fill-rule="evenodd" stroke="#000000" stroke-width="15.804" stroke-linecap="square" stroke-linejoin="bevel"/><path id="shape0" transform="matrix(-1.0000000246191 0 0 1.0000000246191 262.70430585205 383.365004470142)" fill="none" stroke="#000000" stroke-width="15.804" stroke-linecap="square" stroke-linejoin="bevel" d="M0 0C2.61697 86.016 14.4343 201.212 38.6886 282.249C42.3552 294.5 75.7827 394.261 92.2902 368.574"/><path id="shape01" transform="matrix(1.00000003282996 0 0 1.00000003282996 505.938654762999 404.424107830233)" fill="none" stroke="#000000" stroke-width="15.804" stroke-linecap="square" stroke-linejoin="bevel" d="M0 0C2.61696 86.016 17.6866 183.914 41.9409 264.95C45.6075 277.202 79.035 376.962 95.5425 351.275"/><path id="shape2" transform="translate(510.850175796904, 242.434613330181)" fill="none" stroke="#000000" stroke-width="7.884" stroke-linecap="square" stroke-linejoin="bevel" d="M0.0656196 0C-0.775342 5.29806 6.66425 13.9376 11.0703 15.9203"/><path id="shape3" transform="translate(521.830230906618, 248.421205841696)" fill="none" stroke="#000000" stroke-width="7.884" stroke-linecap="square" stroke-linejoin="bevel" d="M0.0901962 9.93374C-1.75341 6.49673 25.1537 -12.626 36.1054 13.658C39.5068 21.8216 42.125 25.3877 48.0649 31.6247C48.8651 32.4649 51.3703 32.3117 49.611 33.2617"/><path id="shape4" transform="translate(519.419078210137, 258.3549083179)" fill="none" stroke="#000000" stroke-width="7.884" stroke-linecap="square" stroke-linejoin="bevel" d="M2.50135 4.20385e-05C3.17568 -0.0252454 -0.0354414 11.3652 0.000296218 14.3243C0.0880884 21.5934 10.2981 28.1873 16.098 30.4901C27.2035 34.8997 37.8484 28.5952 48.7026 27.7072C50.9164 27.526 58.0654 28.8696 56.9333 29.5488"/><path id="shape5" transform="translate(221.882522942395, 119.560051273264)" fill="none" stroke="#000000" stroke-width="7.884" stroke-linecap="square" stroke-linejoin="bevel" d="M32.9444 25.1524C31.9325 28.7952 33.4797 17.4881 32.5806 13.8158C30.3463 4.68949 19.7425 2.01905 10.7987 4.89385C7.203 6.04962 -1.58539 -2.54134 0.24885 0.760288"/><path id="shape6" transform="translate(224.280012101428, 122.040006584886)" fill="none" stroke="#000000" stroke-width="7.884" stroke-linecap="square" stroke-linejoin="bevel" d="M0 0C5.75864 3.45519 -3.79594 20.429 5.26357 25.8647C13.8053 30.9897 40.733 19.0883 40.733 38.5518"/><path id="shape7" transform="translate(202.636782356633, 288.886094932643)" fill="none" stroke="#000000" stroke-width="7.884" stroke-linecap="square" stroke-linejoin="bevel" d="M0.0697549 39.9076C-0.736196 41.5397 5.63786 23.3375 9.07354 18.2576C19.2633 3.19125 36.0571 20.347 49.4087 14.0012C55.2677 11.2166 67.9476 -4.05367 63.9148 1.0276"/><path id="shape8" transform="translate(202.648270143811, 294.19508686762)" fill="none" stroke="#000000" stroke-width="7.884" stroke-linecap="square" stroke-linejoin="bevel" d="M0.0582671 34.5986C-0.677771 33.9421 5.75111 41.7201 8.52774 42.9233C17.258 46.7064 30.58 47.441 39.268 42.8415C50.2355 37.0351 41.3124 21.124 47.8625 11.8603C50.5691 8.03235 57.8833 -3.52078 56.8663 1.05571"/><ellipse id="shape9" transform="matrix(0.907251558159365 0 0 0.907251558159365 439.594887101695 186.577968395154)" rx="22.68" ry="22.68" cx="22.68" cy="22.68" fill="none" stroke="#000000" stroke-width="21.6" stroke-linecap="square" stroke-linejoin="bevel"/><circle id="shape02" transform="matrix(0.907251570696613 0 0 0.907251570696613 556.137602977151 134.708620843835)" r="22.68" cx="22.68" cy="22.68" fill="none" stroke="#000000" stroke-width="21.6" stroke-linecap="square" stroke-linejoin="bevel"/><path id="shape10" transform="matrix(0.993083892446628 0.117406910201478 -0.117406910201478 0.993083892446628 420.046701679081 43.9247062615515)" fill="none" stroke="#000000" stroke-width="7.884" stroke-linecap="square" stroke-linejoin="bevel" d="M189.041 64.149C184.979 62.2759 161.966 50.4566 149.26 63.7255C140.065 68.8013 135.744 85.4157 136.575 90.8583C122.228 106.227 107.641 111.412 83.2195 123.056C70.097 127.476 57.3094 114.274 47.5265 120.355C28.9927 128.843 29.5697 150.249 18.4644 152.808C11.81 153.005 11.3328 149.979 9.06328 144.26C-20.3101 95.6731 29.5308 94.6575 47.9014 73.6579C43.2641 53.3398 21.9628 41.3018 51.4551 22.5238C51.4901 22.4609 51.4227 22.4157 51.4753 22.3664C94.2298 -7.06896 130.495 -8.20314 168.177 23.4499C176.353 30.3178 197.911 49.5335 197.18 62.6915C197.031 65.3767 192.036 62.3746 192.036 65.1803"/><path id="shape11" transform="translate(455.169240289229, 65.1516181967015)" fill="none" stroke="#000000" stroke-width="7.884" stroke-linecap="square" stroke-linejoin="bevel" d="M0 61.8875C0 64.5457 3.76389 58.0664 6.01294 56.6495C10.5864 53.7683 15.2385 52.2914 20.3218 50.4276C27.3213 47.8611 40.5633 47.0824 43.8591 38.6782C47.2199 30.1081 38.9439 17.3869 35.8847 9.73894C34.992 7.50713 31.4222 -2.81867 32.4763 0.738823"/><path id="shape12" transform="translate(411.276672336382, 142.507173366167)" fill="none" stroke="#000000" stroke-width="7.884" stroke-linecap="square" stroke-linejoin="bevel" d="M10.7879 0C19.7773 8.8995 4.7429 38.634 0 34.3654"/><path id="shape13" transform="translate(568.368326339476, 81.4302971681514)" fill="none" stroke="#000000" stroke-width="7.884" stroke-linecap="square" stroke-linejoin="bevel" d="M4.24614 0C5.80937 0.117242 2.60742 4.29924 2.02747 5.38271C-5.93539 20.2588 11.2855 29.964 23.7319 23.3974C24.7184 22.8769 27.3034 21.1422 27.0278 21.3282"/><text id="shape14" krita:useRichText="true" transform="translate(232.2140625, 718.800020464458)" fill="#000000" stroke="#000000" stroke-opacity="0" stroke-width="0" stroke-linecap="square" stroke-linejoin="bevel" font-family="Dyuthi" font-size="65" font-size-adjust="0.422794" font-stretch="normal" font-weight="700" letter-spacing="0" word-spacing="0"><tspan x="0">DZIUPLA</tspan></text>
</svg>
