<?xml version="1.0" standalone="no"?>
<!DOCTYPE svg PUBLIC "-//W3C//DTD SVG 20010904//EN" "http://www.w3.org/TR/2001/REC-SVG-20010904/DTD/svg10.dtd">
<!-- Created using Krita: https://krita.org -->
<svg xmlns="http://www.w3.org/2000/svg" 
    xmlns:xlink="http://www.w3.org/1999/xlink"
    xmlns:krita="http://krita.org/namespaces/svg/krita"
    xmlns:sodipodi="http://sodipodi.sourceforge.net/DTD/sodipodi-0.dtd"
    width="432pt"
    height="432pt"
    viewBox="0 0 432 432">
<defs/>
<path id="shape0" transform="translate(251.289071588968, 296.345237474045)" fill="#82d322" fill-rule="evenodd" stroke="#000000" stroke-opacity="0" stroke-width="0" stroke-linecap="square" stroke-linejoin="bevel" d="M35.4602 39.6594L35.4602 8.02519L34.9819 4.92243L33.5472 2.3329L31.2259 0.583226L28.0882 0L6.99871 0L3.84929 0.583226L1.67969 2.3329L0.419923 4.92243L0 8.02519L0 39.6594L35.4602 39.6594"/><path id="shape1" transform="translate(128.298336408026, 281.881228404966)" fill="#000000" fill-rule="evenodd" stroke="#000000" stroke-opacity="0" stroke-width="0" stroke-linecap="square" stroke-linejoin="bevel" d="M18.1033 119.258L13.8604 119.012L10.1831 118.272L7.07162 117.04L4.52584 115.315L2.54578 113.098L1.13146 110.387L0.282865 107.184L0 103.488L0 0L16.8902 0L16.8902 98.5419L17.1002 101.645L17.7301 103.488L19.2231 104.397L22.0226 104.701L162.042 104.601L162.042 119.159L18.1033 119.258"/><path id="shape2" transform="translate(252.37776044363, 170.834965229457)" fill="#82d322" fill-rule="evenodd" stroke="#000000" stroke-opacity="0" stroke-width="0" stroke-linecap="square" stroke-linejoin="bevel" d="M34.4337 30.7943L34.4337 9.89152L33.8945 6.10703L32.277 3.0898L29.5812 0.839846L27.9715 0.163303L26.1285 0L0 0L0 38.8195L28.928 38.8195L32.6373 37.4898L34.247 33.6871L34.387 32.2174L34.4337 30.7943"/><path id="shape3" transform="translate(235.394214310905, 156.370956160378)" fill="#82d322" fill-rule="evenodd" stroke="#000000" stroke-opacity="0" stroke-width="0" stroke-linecap="square" stroke-linejoin="bevel" d="M68.3074 49.2709L68.1675 51.9538L67.7476 54.4655L67.0477 56.8062L66.0679 58.9758L64.8081 60.9744L63.2684 62.8018L61.4954 64.37L59.5357 65.6531L57.3895 66.6511L55.0566 67.3639L52.537 67.7916L49.8308 67.9342L16.9835 67.9342L16.9835 119.631L0 119.631L0 0L46.0982 0L48.6577 0.123787L51.1106 0.495147L53.4568 1.11408L55.6964 1.98059L57.8294 3.09467L59.8557 4.45632L61.7753 6.06555L63.7712 8.17294L65.4043 10.4514L66.6744 12.901L67.5817 15.5216L68.126 18.3133L68.3074 21.2761L68.3074 49.2709"/><path id="shape4" transform="translate(128.298336408026, 156.091007597751)" fill="#82d322" fill-rule="evenodd" stroke="#000000" stroke-opacity="0" stroke-width="0" stroke-linecap="square" stroke-linejoin="bevel" d="M16.8902 96.8622L17.6679 101.321L20.0008 103.996L23.8889 104.887L43.1121 104.887L46.2498 104.304L48.5711 102.554L50.0058 99.965L50.4841 96.8622L50.4841 0.0933162L67.3743 0L67.3743 99.9416L67.1851 102.609L66.6174 105.136L65.6713 107.524L64.3467 109.771L62.6437 111.878L60.5622 113.846L58.5797 115.356L56.5249 116.634L54.3976 117.679L52.198 118.493L49.9261 119.073L47.5817 119.422L45.165 119.538L22.7691 119.538L20.3239 119.426L17.9472 119.089L15.639 118.527L13.3994 117.74L11.2284 116.729L9.12594 115.493L7.09203 114.032L4.92502 112.112L3.15201 110.02L1.77301 107.757L0.788003 105.323L0.197001 102.718L0 99.9416L0 0.0933162L16.8902 0.0933162L16.8902 96.8622"/><path id="shape5" transform="translate(284.696266729163, 30.86068391579)" fill="#000000" fill-rule="evenodd" stroke="#000000" stroke-opacity="0" stroke-width="0" stroke-linecap="square" stroke-linejoin="bevel" d="M17.1702 119.258L0 119.258L0 4.66581L0.349936 2.91613L1.39974 1.39974L2.91613 0.349936L4.66581 0L12.5044 0L14.254 0.349936L15.7704 1.39974L16.8202 2.91613L17.1702 4.66581L17.1702 119.258"/><path id="shape6" transform="translate(202.671337879354, 30.86068391579)" fill="#000000" fill-rule="evenodd" stroke="#000000" stroke-opacity="0" stroke-width="0" stroke-linecap="square" stroke-linejoin="bevel" d="M72.5067 0.0933162L75.1662 2.23959L76.0527 5.87892L75.9925 6.17845L75.8119 6.68305L75.5109 7.39272L75.0896 8.30744L74.5478 9.42724L73.8857 10.7521L73.1032 12.282L72.2002 14.017L71.1769 15.9571L70.0332 18.1022L68.7691 20.4524L67.3847 23.0076L65.8798 25.7679L64.2545 28.7333L62.5089 31.9038L60.6428 35.2793L58.6564 38.8599L56.5496 42.6455L54.878 45.6448L53.2551 48.5571L51.6809 51.3821L50.1554 54.12L48.6786 56.7708L47.2504 59.3345L45.871 61.8109L44.5402 64.2003L43.2581 66.5025L42.0247 68.7176L40.84 70.8455L39.704 72.8863L38.6167 74.8399L37.578 76.7064L36.5881 78.4858L35.6468 80.178L34.7542 81.7831L33.9103 83.301L33.1151 84.7318L32.3685 86.0755L31.6707 87.332L31.0215 88.5013L30.4211 89.5835L28.3526 93.3058L26.564 96.5097L25.0554 99.1951L23.8267 101.362L22.878 103.011L22.2093 104.141L75.0262 104.141L75.0262 119.351L3.54602 119.351L3.54602 119.258L0.886504 117.322L0 113.939L0.018545 113.731L0.0821216 113.447L0.19073 113.087L0.34437 112.652L0.543042 112.142L0.786745 111.557L1.07548 110.895L1.40925 110.159L1.78805 109.347L2.21188 108.459L2.68074 107.496L3.19463 106.458L3.75356 105.344L4.35752 104.155L5.0065 102.89L5.70052 101.55L6.43958 100.134L7.22366 98.6432L8.05278 97.0766L8.92692 95.4347L9.8461 93.7172L10.8103 91.9244L11.8196 90.0561L12.8738 88.1123L13.9731 86.0931L15.1175 83.9985L16.3068 81.8284L17.5412 79.5828L18.8207 77.2618L20.1451 74.8654L21.5146 72.3935L22.9292 69.8462L24.3887 67.2234L25.8933 64.5252L27.4429 61.7515L29.0376 58.9024L30.6773 55.9778L32.362 52.9778L34.0918 49.9023L35.8665 46.7514L37.6863 43.5251L39.5512 40.2232L41.4611 36.846L43.416 33.3933L45.4159 29.8652L47.4609 26.2616L49.5509 22.5825L52.0938 18.15L53.7501 15.3039L2.23959 15.3039L2.23959 0L72.5067 0L72.5067 0.0933162"/><path id="shape7" transform="translate(145.281882540751, 45.3246929848689)" fill="#82d322" fill-rule="evenodd" stroke="#000000" stroke-opacity="0" stroke-width="0" stroke-linecap="square" stroke-linejoin="bevel" d="M34.4337 82.1182L34.4337 9.89152L33.8945 6.10703L32.277 3.0898L29.5812 0.839846L27.9715 0.163303L26.1285 0L0 0L0 90.1434L28.928 90.1434L32.6373 88.8137L34.247 85.011L34.387 83.5413L34.4337 82.1182"/><path id="shape8" transform="translate(128.298336408026, 30.86068391579)" fill="#82d322" fill-rule="evenodd" stroke="#000000" stroke-opacity="0" stroke-width="0" stroke-linecap="square" stroke-linejoin="bevel" d="M68.3074 100.595L68.1675 103.278L67.7476 105.789L67.0477 108.13L66.0679 110.3L64.8081 112.298L63.2684 114.126L61.4954 115.694L59.5357 116.977L57.3895 117.975L55.0566 118.688L52.537 119.116L49.8308 119.258L0 119.258L0 0L46.0982 0L48.6577 0.123787L51.1106 0.495147L53.4568 1.11408L55.6964 1.98059L57.8294 3.09467L59.8557 4.45632L61.7753 6.06555L63.7712 8.17294L65.4043 10.4514L66.6744 12.901L67.5817 15.5216L68.126 18.3133L68.3074 21.2761L68.3074 100.595"/><text id="shape9" krita:useRichText="true" transform="matrix(0.999997511327027 0.00223099523829582 -0.00223099523829582 0.999997511327027 340.507281175459 -64.7038999362187)" fill="#000000" stroke="#000000" stroke-opacity="0" stroke-width="0" stroke-linecap="square" stroke-linejoin="bevel" letter-spacing="0">Placeholder Text</text><path id="shape10" transform="translate(234.398841643785, 281.601279842338)" fill="#82d322" fill-rule="evenodd" stroke="#000000" stroke-opacity="0" stroke-width="0" stroke-linecap="square" stroke-linejoin="bevel" d="M69.2406 119.538L52.3504 119.538L52.3504 68.774L16.8902 68.774L16.8902 119.538L0 119.538L0 19.6897L0.197001 16.9395L0.788003 14.35L1.77301 11.9211L3.15201 9.65304L4.92502 7.54565L7.09203 5.59897L9.1488 4.11353L11.2665 2.85662L13.4451 1.82824L15.6847 1.02838L17.9853 0.457059L20.3467 0.114265L22.7691 0L47.0314 0L49.4004 0.116169L51.7086 0.464677L53.9558 1.04552L56.1421 1.85871L58.2674 2.90423L60.3318 4.18209L62.3352 5.69229L64.4452 7.6623L66.1715 9.77746L67.5143 12.0378L68.4733 14.4433L69.0488 16.9939L69.2406 19.6897L69.2406 119.538"/><ellipse id="shape01" transform="matrix(0.586776404287207 0 0 0.586776404287207 155.137736745185 378.307930852553)" rx="7.56" ry="7.55999999999997" cx="7.56" cy="7.55999999999997" fill="#82d322" fill-rule="evenodd" stroke="#82d322" stroke-width="4.7376" stroke-linecap="square" stroke-linejoin="bevel"/><ellipse id="shape02" transform="matrix(0.586776385936352 0 0 0.586776385936352 179.326869572503 378.307930991285)" rx="7.56" ry="7.55999999999997" cx="7.56" cy="7.55999999999997" fill="#82d322" fill-rule="evenodd" stroke="#82d322" stroke-width="5.04" stroke-linecap="square" stroke-linejoin="bevel"/><path id="shape11" transform="matrix(0.586776404287207 0 0 0.586776404287207 150.780922041217 361.620009914625)" fill="none" stroke="#82d322" stroke-width="7.2" stroke-linecap="round" stroke-linejoin="round" d="M11.925 36C21.345 36.072 42.345 35.9512 74.925 35.6375C75.093 28.1388 75.093 23.4295 74.925 21.5095C73.125 20.2135 69.3092 17.8436 63.4777 14.4C56.9424 14.604 52.9967 14.604 51.6407 14.4C49.6157 10.107 47.154 6.678 44.004 0C39.072 0.054 31.6473 0.054 21.7301 0C17.9118 6.432 15.1117 11.232 13.3297 14.4C7.15569 14.4 4.014 14.4 0.045 14.4C-0.015 16.716 -0.015 22.206 0.045 30.87"/>
</svg>
