<?xml version="1.0" standalone="no"?>
<!DOCTYPE svg PUBLIC "-//W3C//DTD SVG 20010904//EN" "http://www.w3.org/TR/2001/REC-SVG-20010904/DTD/svg10.dtd">
<!-- Created using Krita: https://krita.org -->
<svg xmlns="http://www.w3.org/2000/svg" 
    xmlns:xlink="http://www.w3.org/1999/xlink"
    xmlns:krita="http://krita.org/namespaces/svg/krita"
    xmlns:sodipodi="http://sodipodi.sourceforge.net/DTD/sodipodi-0.dtd"
    width="360pt"
    height="360pt"
    viewBox="0 0 360 360">
<defs/>
<text id="shape9" krita:useRichText="true" transform="matrix(0.999997511327027 0.00223099523829582 -0.00223099523829582 0.999997511327027 -151.972718824541 -100.703899936219)" fill="#000000" stroke="#000000" stroke-opacity="0" stroke-width="0" stroke-linecap="square" stroke-linejoin="bevel" letter-spacing="0">Placeholder Text</text><path id="shape0" transform="matrix(1.85514262522178 0 0 1.85514262522178 213.270641212294 96.4721247001632)" fill="#82d322" fill-rule="evenodd" stroke="#000000" stroke-opacity="0" stroke-width="0" stroke-linecap="square" stroke-linejoin="bevel" d="M35.4602 39.6594L35.4602 8.02519L34.9819 4.92243L33.5472 2.3329L31.2259 0.583226L28.0882 0L6.99871 0L3.84929 0.583226L1.67969 2.3329L0.419923 4.92243L0 8.02519L0 39.6594L35.4602 39.6594"/><path id="shape1" transform="matrix(1.85514262522178 0 0 1.85514262522178 49.6119558528826 69.6393249445206)" fill="#000000" fill-rule="evenodd" stroke="#000000" stroke-opacity="0" stroke-width="0" stroke-linecap="square" stroke-linejoin="bevel" d="M18.1033 119.258L13.8604 119.012L10.1831 118.272L7.07162 117.04L4.52584 115.315L2.54578 113.098L1.13146 110.387L0.282865 107.184L0 103.488L0 0L16.8902 0L16.8902 98.5419L17.1002 101.645L17.7301 103.488L19.2231 104.397L22.0226 104.701L127.27 104.601L127.27 119.159L18.1033 119.258"/><path id="shape10" transform="matrix(1.85514262522178 0 0 1.85514262522178 181.936855691186 69.1199804331197)" fill="#82d322" fill-rule="evenodd" stroke="#000000" stroke-opacity="0" stroke-width="0" stroke-linecap="square" stroke-linejoin="bevel" d="M69.2406 119.538L52.3504 119.538L52.3504 68.774L16.8902 68.774L16.8902 119.538L0 119.538L0 19.6897L0.197001 16.9395L0.788003 14.35L1.77301 11.9211L3.15201 9.65304L4.92502 7.54565L7.09203 5.59897L9.1488 4.11353L11.2665 2.85662L13.4451 1.82824L15.6847 1.02838L17.9853 0.457059L20.3467 0.114265L22.7691 0L47.0314 0L49.4004 0.116169L51.7086 0.464677L53.9558 1.04552L56.1421 1.85871L58.2674 2.90423L60.3318 4.18209L62.3352 5.69229L64.4452 7.6623L66.1715 9.77746L67.5143 12.0378L68.4733 14.4433L69.0488 16.9939L69.2406 19.6897L69.2406 119.538"/><ellipse id="shape01" transform="matrix(1.08855391906756 0 0 1.08855391906756 99.0812728353796 247.572893178242)" rx="7.56" ry="7.55999999999997" cx="7.56" cy="7.55999999999997" fill="#82d322" fill-rule="evenodd" stroke="#82d322" stroke-width="4.7376" stroke-linecap="square" stroke-linejoin="bevel"/><ellipse id="shape02" transform="matrix(1.08855388502411 0 0 1.08855388502411 143.955564210488 247.572893435609)" rx="7.56" ry="7.55999999999997" cx="7.56" cy="7.55999999999997" fill="#82d322" fill-rule="evenodd" stroke="#82d322" stroke-width="5.04" stroke-linecap="square" stroke-linejoin="bevel"/><path id="shape11" transform="matrix(1.08855391906756 0 0 1.08855391906756 90.9987601678552 216.614419719961)" fill="none" stroke="#82d322" stroke-width="7.2" stroke-linecap="round" stroke-linejoin="round" d="M11.925 36C21.345 36.072 42.345 35.9512 74.925 35.6375C75.093 28.1388 75.093 23.4295 74.925 21.5095C73.125 20.2135 69.3092 17.8436 63.4777 14.4C56.9424 14.604 52.9967 14.604 51.6407 14.4C49.6157 10.107 47.154 6.678 44.004 0C39.072 0.054 31.6473 0.054 21.7301 0C17.9118 6.432 15.1117 11.232 13.3297 14.4C7.15569 14.4 4.014 14.4 0.045 14.4C-0.015 16.716 -0.015 22.206 0.045 30.87"/>
</svg>
